<mxfile host="Electron" modified="2023-12-06T01:19:59.871Z" agent="Mozilla/5.0 (Windows NT 10.0; Win64; x64) AppleWebKit/537.36 (KHTML, like Gecko) draw.io/22.1.2 Chrome/114.0.5735.289 Electron/25.9.4 Safari/537.36" etag="uyPk2bZegpL3vgV8bsOT" version="22.1.2" type="device">
  <diagram name="Page-1" id="RqvFEmYiBey-mmp2uq0f">
    <mxGraphModel dx="2938" dy="88" grid="1" gridSize="10" guides="1" tooltips="1" connect="1" arrows="1" fold="1" page="1" pageScale="1" pageWidth="850" pageHeight="1100" math="0" shadow="0">
      <root>
        <mxCell id="0" />
        <mxCell id="1" parent="0" />
        <mxCell id="nMzOWIhSYoP_u_moiuw_-1" value="NAIP Imagery" style="strokeWidth=2;html=1;shape=mxgraph.flowchart.start_1;whiteSpace=wrap;fontSize=13;fontStyle=1;fillColor=#d5e8d4;strokeColor=#82b366;" parent="1" vertex="1">
          <mxGeometry x="44.999999999999986" y="2040" width="133.33" height="80" as="geometry" />
        </mxCell>
        <mxCell id="nMzOWIhSYoP_u_moiuw_-2" style="edgeStyle=orthogonalEdgeStyle;rounded=0;orthogonalLoop=1;jettySize=auto;html=1;exitX=1;exitY=0.5;exitDx=0;exitDy=0;exitPerimeter=0;entryX=0;entryY=0.5;entryDx=0;entryDy=0;strokeWidth=3;" parent="1" source="nMzOWIhSYoP_u_moiuw_-3" target="nMzOWIhSYoP_u_moiuw_-7" edge="1">
          <mxGeometry relative="1" as="geometry" />
        </mxCell>
        <mxCell id="nMzOWIhSYoP_u_moiuw_-3" value="Training Data&lt;br&gt;" style="strokeWidth=2;html=1;shape=mxgraph.flowchart.start_1;whiteSpace=wrap;fontSize=13;fontStyle=1;fillColor=#d5e8d4;strokeColor=#82b366;" parent="1" vertex="1">
          <mxGeometry x="45" y="1930" width="133.33" height="80" as="geometry" />
        </mxCell>
        <mxCell id="nMzOWIhSYoP_u_moiuw_-4" style="edgeStyle=orthogonalEdgeStyle;rounded=0;orthogonalLoop=1;jettySize=auto;html=1;exitX=0.5;exitY=1;exitDx=0;exitDy=0;entryX=0;entryY=0.75;entryDx=0;entryDy=0;strokeWidth=3;" parent="1" source="nMzOWIhSYoP_u_moiuw_-5" target="nMzOWIhSYoP_u_moiuw_-10" edge="1">
          <mxGeometry relative="1" as="geometry" />
        </mxCell>
        <mxCell id="nMzOWIhSYoP_u_moiuw_-5" value="&lt;font style=&quot;font-size: 15px;&quot;&gt;&lt;b&gt;ProcessNAIP&lt;/b&gt;&lt;br&gt;select, clip, mosaic, ndvi, other bands&lt;br&gt;&lt;/font&gt;" style="rounded=1;whiteSpace=wrap;html=1;absoluteArcSize=1;arcSize=14;strokeWidth=2;fillColor=#dae8fc;strokeColor=#6c8ebf;" parent="1" vertex="1">
          <mxGeometry x="240" y="2030" width="150" height="120" as="geometry" />
        </mxCell>
        <mxCell id="nMzOWIhSYoP_u_moiuw_-6" style="edgeStyle=orthogonalEdgeStyle;rounded=0;orthogonalLoop=1;jettySize=auto;html=1;exitX=1;exitY=0.5;exitDx=0;exitDy=0;entryX=0;entryY=0.5;entryDx=0;entryDy=0;strokeWidth=3;" parent="1" source="nMzOWIhSYoP_u_moiuw_-7" target="nMzOWIhSYoP_u_moiuw_-14" edge="1">
          <mxGeometry relative="1" as="geometry" />
        </mxCell>
        <mxCell id="nMzOWIhSYoP_u_moiuw_-7" value="Test/Train Split" style="shape=parallelogram;html=1;strokeWidth=2;perimeter=parallelogramPerimeter;whiteSpace=wrap;rounded=1;arcSize=12;size=0.23;fontStyle=1;fillColor=#ffe6cc;strokeColor=#d79b00;" parent="1" vertex="1">
          <mxGeometry x="239.99999999999994" y="1935.72" width="160" height="68.57" as="geometry" />
        </mxCell>
        <mxCell id="nMzOWIhSYoP_u_moiuw_-8" style="edgeStyle=orthogonalEdgeStyle;rounded=0;orthogonalLoop=1;jettySize=auto;html=1;exitX=1;exitY=0.5;exitDx=0;exitDy=0;entryX=0;entryY=0.5;entryDx=0;entryDy=0;strokeWidth=3;" parent="1" source="nMzOWIhSYoP_u_moiuw_-9" target="nMzOWIhSYoP_u_moiuw_-12" edge="1">
          <mxGeometry relative="1" as="geometry" />
        </mxCell>
        <mxCell id="nMzOWIhSYoP_u_moiuw_-9" value="&lt;font style=&quot;font-size: 15px;&quot;&gt;&lt;b&gt;snicModel(cluster)&lt;/b&gt;&lt;br&gt;Define seeds, run segementation, project results&lt;br&gt;&lt;/font&gt;" style="rounded=1;whiteSpace=wrap;html=1;absoluteArcSize=1;arcSize=14;strokeWidth=2;fillColor=#dae8fc;strokeColor=#6c8ebf;" parent="1" vertex="1">
          <mxGeometry x="483.33000000000004" y="2030" width="210" height="130" as="geometry" />
        </mxCell>
        <mxCell id="nMzOWIhSYoP_u_moiuw_-10" value="&lt;font style=&quot;font-size: 15px;&quot;&gt;&lt;b&gt;RF classifier pixel&lt;/b&gt;&lt;br&gt;Develop model, apply to imagery&lt;br&gt;&lt;/font&gt;" style="rounded=1;whiteSpace=wrap;html=1;absoluteArcSize=1;arcSize=14;strokeWidth=2;fillColor=#dae8fc;strokeColor=#6c8ebf;" parent="1" vertex="1">
          <mxGeometry x="488.33" y="2220" width="191.67" height="100" as="geometry" />
        </mxCell>
        <mxCell id="nMzOWIhSYoP_u_moiuw_-11" style="edgeStyle=orthogonalEdgeStyle;rounded=0;orthogonalLoop=1;jettySize=auto;html=1;exitX=0.5;exitY=1;exitDx=0;exitDy=0;entryX=0;entryY=0.5;entryDx=0;entryDy=0;strokeWidth=3;" parent="1" source="nMzOWIhSYoP_u_moiuw_-12" target="nMzOWIhSYoP_u_moiuw_-15" edge="1">
          <mxGeometry relative="1" as="geometry" />
        </mxCell>
        <mxCell id="nMzOWIhSYoP_u_moiuw_-12" value="&lt;font style=&quot;font-size: 15px;&quot;&gt;&lt;b&gt;RF classifier cluster&lt;/b&gt;&lt;br&gt;Develop model, apply to imagery&lt;br&gt;&lt;/font&gt;" style="rounded=1;whiteSpace=wrap;html=1;absoluteArcSize=1;arcSize=14;strokeWidth=2;fillColor=#dae8fc;strokeColor=#6c8ebf;" parent="1" vertex="1">
          <mxGeometry x="740" y="2044.28" width="190" height="100" as="geometry" />
        </mxCell>
        <mxCell id="nMzOWIhSYoP_u_moiuw_-13" style="edgeStyle=orthogonalEdgeStyle;rounded=0;orthogonalLoop=1;jettySize=auto;html=1;exitX=0.5;exitY=1;exitDx=0;exitDy=0;entryX=0.5;entryY=0;entryDx=0;entryDy=0;strokeWidth=3;" parent="1" source="nMzOWIhSYoP_u_moiuw_-14" target="nMzOWIhSYoP_u_moiuw_-15" edge="1">
          <mxGeometry relative="1" as="geometry">
            <Array as="points">
              <mxPoint x="1075" y="2020" />
            </Array>
          </mxGeometry>
        </mxCell>
        <mxCell id="nMzOWIhSYoP_u_moiuw_-14" value="&lt;font style=&quot;font-size: 15px;&quot;&gt;&lt;b&gt;validate on Test Data&amp;nbsp;&lt;br&gt;&lt;/b&gt;Evaluate the model on the testing data&lt;br&gt;&lt;/font&gt;" style="rounded=1;whiteSpace=wrap;html=1;absoluteArcSize=1;arcSize=14;strokeWidth=2;fillColor=#ffe6cc;strokeColor=#d79b00;" parent="1" vertex="1">
          <mxGeometry x="1040" y="1920" width="100" height="100" as="geometry" />
        </mxCell>
        <mxCell id="nMzOWIhSYoP_u_moiuw_-15" value="Ensemble Model" style="shape=parallelogram;html=1;strokeWidth=2;perimeter=parallelogramPerimeter;whiteSpace=wrap;rounded=1;arcSize=12;size=0.23;fontStyle=1;fillColor=#ffe6cc;strokeColor=#d79b00;" parent="1" vertex="1">
          <mxGeometry x="950" y="2140" width="250" height="108.57" as="geometry" />
        </mxCell>
        <mxCell id="nMzOWIhSYoP_u_moiuw_-16" style="edgeStyle=orthogonalEdgeStyle;rounded=0;orthogonalLoop=1;jettySize=auto;html=1;exitX=1;exitY=0.5;exitDx=0;exitDy=0;exitPerimeter=0;entryX=0;entryY=0.417;entryDx=0;entryDy=0;entryPerimeter=0;strokeWidth=3;" parent="1" source="nMzOWIhSYoP_u_moiuw_-1" target="nMzOWIhSYoP_u_moiuw_-5" edge="1">
          <mxGeometry relative="1" as="geometry" />
        </mxCell>
        <mxCell id="nMzOWIhSYoP_u_moiuw_-17" style="edgeStyle=orthogonalEdgeStyle;rounded=0;orthogonalLoop=1;jettySize=auto;html=1;entryX=-0.01;entryY=0.461;entryDx=0;entryDy=0;entryPerimeter=0;strokeWidth=3;exitX=1;exitY=0.5;exitDx=0;exitDy=0;" parent="1" source="nMzOWIhSYoP_u_moiuw_-5" target="nMzOWIhSYoP_u_moiuw_-9" edge="1">
          <mxGeometry relative="1" as="geometry">
            <mxPoint x="390" y="2080" as="sourcePoint" />
          </mxGeometry>
        </mxCell>
        <mxCell id="nMzOWIhSYoP_u_moiuw_-18" style="edgeStyle=orthogonalEdgeStyle;rounded=0;orthogonalLoop=1;jettySize=auto;html=1;exitX=1;exitY=0.5;exitDx=0;exitDy=0;entryX=0.076;entryY=0.617;entryDx=0;entryDy=0;entryPerimeter=0;strokeWidth=3;" parent="1" source="nMzOWIhSYoP_u_moiuw_-10" target="nMzOWIhSYoP_u_moiuw_-15" edge="1">
          <mxGeometry relative="1" as="geometry" />
        </mxCell>
      </root>
    </mxGraphModel>
  </diagram>
</mxfile>
